<mxfile host="app.diagrams.net" modified="2023-09-12T08:07:47.063Z" agent="Mozilla/5.0 (iPhone; CPU iPhone OS 16_6 like Mac OS X) AppleWebKit/605.1.15 (KHTML, like Gecko) Version/16.6 Mobile/15E148 Safari/604.1" version="21.7.4" etag="QRKPf6hM9qW_fUaKIU4w" type="github">
  <diagram name="Страница — 1" id="66q8bZ4vGZepxB14vF5S">
    <mxGraphModel>
      <root>
        <mxCell id="0" />
        <mxCell id="1" parent="0" />
      </root>
    </mxGraphModel>
  </diagram>
</mxfile>
